<svg id="_1._LANDING_IIIIIIIIIIIIIIIIIII" data-name="1. LANDING   IIIIIIIIIIIIIIIIIII" xmlns="http://www.w3.org/2000/svg" viewBox="0 0 19.05 15.05"><title>hamburger</title><path d="M86.45,41h-16a1.5,1.5,0,1,1,0-3h16a1.5,1.5,0,1,1,0,3h0Z" transform="translate(-68.95 -38)" style="fill:#fff"/><path d="M86.5,47h-16a1.5,1.5,0,1,1,0-3h16a1.5,1.5,0,1,1,0,3h0Z" transform="translate(-68.95 -38)" style="fill:#fff"/><path d="M86.5,53h-16a1.5,1.5,0,1,1,0-3h16a1.5,1.5,0,1,1,0,3h0Z" transform="translate(-68.95 -38)" style="fill:#fff"/></svg>