<svg id="_1._LANDING_IIIIIIIIIIIIIIIIIII" data-name="1. LANDING   IIIIIIIIIIIIIIIIIII" xmlns="http://www.w3.org/2000/svg" viewBox="0 0 26.99 32"><title>logo</title><path d="M48.14,38.95h2.1v6.7h0L53.64,39h2.1l-3.12,6L56,53.63H53.75L51.4,47.19l-3.26,6.16V38.95Z" transform="translate(-31.46 -30)" style="fill:#f06"/><path d="M46.33,50.36A3.39,3.39,0,0,1,43,53.76a3.18,3.18,0,0,1-3.46-3.47V42.2A3.28,3.28,0,0,1,43,38.82a3.33,3.33,0,0,1,3.38,3.51v0.83H44.23v-0.7a1.38,1.38,0,0,0-1.3-1.53c-1.05,0-1.3.72-1.3,1.71v7.51a1.26,1.26,0,0,0,1.28,1.51,1.3,1.3,0,0,0,1.32-1.48V49.45h2.11v0.91Z" transform="translate(-31.46 -30)" style="fill:#f06"/><path d="M44.18,60.68A14.83,14.83,0,1,1,57.75,35.35L58.45,34a16.28,16.28,0,1,0-15,28Z" transform="translate(-31.46 -30)" style="fill:#f06"/></svg>