<svg id="_1._LANDING_IIIIIIIIIIIIIIIIIII" data-name="1. LANDING   IIIIIIIIIIIIIIIIIII" xmlns="http://www.w3.org/2000/svg" viewBox="0 0 271.88 112.9"><title>text-bg</title><path d="M391.35,152h7.23l-0.05,50.52h-7.24Z" transform="translate(-363.06 -90.11)" style="fill:#fff"/><path d="M404.31,152h7l10.88,30.46h0.15l0-30.44h7.24l-0.06,50.51H422.7l-11-30.37h-0.14l0,30.37h-7.24Z" transform="translate(-363.06 -90.11)" style="fill:#fff"/><polygon points="94.97 105.22 78.88 105.2 78.89 90.38 94.89 90.39 94.89 83.58 78.9 83.56 78.92 68.74 95.15 68.76 95.16 61.94 71.7 61.92 71.64 112.42 91.13 112.46 94.97 105.22" style="fill:#fff"/><path d="M462.73,151.92H470l0,23.06h0.14l11.6-23.06h7.24L478.16,172.5l11.56,30H482l-8.1-22.15-11.22,21.22V151.92Z" transform="translate(-363.06 -90.11)" style="fill:#fff"/><path d="M490.65,163.87a12.14,12.14,0,1,1,24.28,0l0,26.69a12.14,12.14,0,1,1-24.27,0Zm7.21,26.7c0,3.49,2.26,5.12,4.89,5.12s4.9-1.63,4.91-5.11l0-26.68c0-3.48-2.27-5.11-4.89-5.12s-4.9,1.63-4.91,5.11Z" transform="translate(-363.06 -90.11)" style="fill:#fff"/><path d="M520.06,152h7l9.26,26.76h0.15L545.68,152h7l-0.07,50.54h-7.23l0-30.73H545.3l-7.19,21.71h-3.63l-7.07-21.73h-0.14l0,30.72H520Z" transform="translate(-363.06 -90.11)" style="fill:#fff"/><path d="M581.9,191.23a11.71,11.71,0,1,1-23.42,0l0-39.19,7.24,0,0,38.46c0,3.55,1.91,5.26,4.46,5.26s4.48-1.7,4.48-5.26l0-38.47,7.25,0Z" transform="translate(-363.06 -90.11)" style="fill:#fff"/><path d="M587.08,152.06H594l10.9,30.46h0.14l0-30.44h7.23l-0.05,50.53h-6.81l-11-30.39H594.3l0,30.38H587Z" transform="translate(-363.06 -90.11)" style="fill:#fff"/><polygon points="262.07 94.86 262.05 94.86 265.62 76.55 265.75 76.55 267.34 84.75 271.88 76.04 268.75 62 262.72 61.99 251.38 112.52 252.86 112.53 262.07 94.86" style="fill:#fff"/><path d="M386.52,191.22A11.69,11.69,0,0,1,375,202.93c-5.55,0-11.94-2.72-11.93-12l0-27.86c0-6.61,4.79-11.65,11.81-11.64,6.68,0,11.66,5,11.64,12.09v2.85h-7.26V164c0-2.84-1.7-5.26-4.47-5.26-3.63,0-4.48,2.47-4.49,5.88l0,25.88c0,2.91,1.13,5.19,4.4,5.19,2,0,4.55-1.14,4.56-5.12v-2.49h7.26v3.13Z" transform="translate(-363.06 -90.11)" style="fill:#fff"/><path d="M503.48,102.68h3v9.41h0.06l4.73-9.41h3l-4.39,8.39,4.71,12.23h-3.13l-3.31-9-4.58,8.66V102.68Z" transform="translate(-363.06 -90.11)" style="fill:#f06"/><path d="M500.93,118.72a4.77,4.77,0,0,1-4.7,4.78c-2.27,0-4.87-1.11-4.87-4.88V107.25a4.62,4.62,0,0,1,4.82-4.75,4.69,4.69,0,0,1,4.75,4.93v1.16h-3v-1a1.94,1.94,0,0,0-1.82-2.14c-1.48,0-1.83,1-1.83,2.4v10.56c0,1.19.46,2.12,1.79,2.12a1.83,1.83,0,0,0,1.86-2.09v-1h3v1.28Z" transform="translate(-363.06 -90.11)" style="fill:#f06"/><path d="M497.91,133.23A20.84,20.84,0,1,1,517,97.63l1-1.85a22.89,22.89,0,1,0-21.06,39.32Z" transform="translate(-363.06 -90.11)" style="fill:#f06"/></svg>